<svg id="Layer_1" data-name="Layer 1" xmlns="http://www.w3.org/2000/svg" viewBox="0 0 23 23"><defs><style>.cls-1{fill:none;stroke:#1d1d1b;stroke-miterlimit:10;}</style></defs><title>Icon set</title><path class="cls-1" d="M4.32,0.67L7.95,4.3a0.59,0.59,0,0,1,0,.83L6.32,6.75C6,7,8.19,10.48,10.59,12.88s5.35,4.09,5.65,3.79L17.87,15a0.59,0.59,0,0,1,.83,0l3.62,3.62a0.59,0.59,0,0,1,0,.83l-1.6,1.6a4.79,4.79,0,0,1-5.8.75c-2-1.14-3.14-1.83-7.31-6S2.36,10.11,1.18,8.11A4.8,4.8,0,0,1,1.9,2.27L3.49,0.67A0.59,0.59,0,0,1,4.32.67Z"/></svg>